# xmcd
#
# Track frame offsets: 
#        150
#        13627
#        26657
#        50109
#        70595
#        83316
#        98372
#        113469
#        126700
#        143094
#        166981
#        180689
#        195311
#
# Disc length: 2818 seconds
#
# Revision: 0
# Processed by: cddbd v1.5.2PL0 Copyright (c) Steve Scherf et al.
# Submitted via: ExactAudioCopy v1.0b2
#
DISCID=9d0b000d
DTITLE=Shaggy Dogs - Who let the shaggy Dogs out
DYEAR=2011
DGENRE=
TTITLE0=Why Should I Wait
TTITLE1=You Gotta Live
TTITLE2=How I (really) Feel
TTITLE3=Hallelujah
TTITLE4=Promise
TTITLE5=Check Point
TTITLE6=I'm Just A Man
TTITLE7=Hello
TTITLE8=Don't Think Twice
TTITLE9=Leave My Heart Alone
TTITLE10=Andre Williams
TTITLE11=They Get What They Want
TTITLE12=Communication Rules
EXTD=
EXTT0=
EXTT1=
EXTT2=
EXTT3=
EXTT4=
EXTT5=
EXTT6=
EXTT7=
EXTT8=
EXTT9=
EXTT10=
EXTT11=
EXTT12=
PLAYORDER=
